<?xml version="1.0"?>
<!DOCTYPE svg PUBLIC "-//W3C//DTD SVG 1.1//EN" "http://www.w3.org/Graphics/SVG/1.1/DTD/svg11.dtd">
<svg width="114.438507477mm" height="105.438507477mm" viewBox="-9.737356 -94.737356 114.438507 105.438507" xmlns="http://www.w3.org/2000/svg" version="1.1">
<g id="Sketch014" transform="scale(1,-1)">
<path id="Sketch014_w0000"  d="M 81.2020429395 91.0 A 14.0 14.0 0 0 0 101.0 71.2020429395 L 101.0 20.9999228169 A 20.0 20.0 0 0 0 73.0000771831 -7.0 L 21.9999228169 -6.99999999996 A 20.0 20.0 0 0 0 -5.99999999996 20.9999228169 L -6.0 71.2020429395 A 14.0 14.0 0 1 0 13.7979570605 91.0 L 47.78043 91.0 L 81.2020429395 91.0 " stroke="#000000" stroke-width="0.35 px" style="stroke-width:0.35;stroke-miterlimit:4;stroke-dasharray:none;fill:none;fill-rule: evenodd "/>
<circle cx="-1.65676163723" cy="86.6567616372" r="1.4" stroke="#000000" stroke-width="0.35 px" style="stroke-width:0.35;stroke-miterlimit:4;stroke-dasharray:none;fill:none"/>
<circle cx="22.0" cy="82.0" r="1.4" stroke="#000000" stroke-width="0.35 px" style="stroke-width:0.35;stroke-miterlimit:4;stroke-dasharray:none;fill:none"/>
<circle cx="73.0" cy="82.0" r="1.4" stroke="#000000" stroke-width="0.35 px" style="stroke-width:0.35;stroke-miterlimit:4;stroke-dasharray:none;fill:none"/>
<circle cx="96.6567616372" cy="86.6567616372" r="1.4" stroke="#000000" stroke-width="0.35 px" style="stroke-width:0.35;stroke-miterlimit:4;stroke-dasharray:none;fill:none"/>
<circle cx="91.0" cy="75.0" r="1.4" stroke="#000000" stroke-width="0.35 px" style="stroke-width:0.35;stroke-miterlimit:4;stroke-dasharray:none;fill:none"/>
<circle cx="91.0" cy="42.0" r="1.4" stroke="#000000" stroke-width="0.35 px" style="stroke-width:0.35;stroke-miterlimit:4;stroke-dasharray:none;fill:none"/>
<circle cx="94.8992634059" cy="-0.89926340595" r="1.4" stroke="#000000" stroke-width="0.35 px" style="stroke-width:0.35;stroke-miterlimit:4;stroke-dasharray:none;fill:none"/>
<circle cx="0.10073659405" cy="-0.89926340595" r="1.4" stroke="#000000" stroke-width="0.35 px" style="stroke-width:0.35;stroke-miterlimit:4;stroke-dasharray:none;fill:none"/>
<circle cx="3.0" cy="57.0" r="1.4" stroke="#000000" stroke-width="0.35 px" style="stroke-width:0.35;stroke-miterlimit:4;stroke-dasharray:none;fill:none"/>
<path id="Sketch014_w0010"  d="M 33.430183 65.558647 L 61.476234 65.558647 L 61.476234 38.891868 L 33.430183 38.891868 L 33.430183 65.558647 " stroke="#000000" stroke-width="0.35 px" style="stroke-width:0.35;stroke-miterlimit:4;stroke-dasharray:none;fill:none;fill-rule: evenodd "/>
<title>Sketch014</title>
</g>
</svg>