<?xml version="1.0"?>
<!DOCTYPE svg PUBLIC "-//W3C//DTD SVG 1.1//EN" "http://www.w3.org/Graphics/SVG/1.1/DTD/svg11.dtd">
<svg width="114.438507477mm" height="105.438507477mm" viewBox="-9.737356 -94.737356 114.438507 105.438507" xmlns="http://www.w3.org/2000/svg" version="1.1">
<g id="Sketch013" transform="scale(1,-1)">
<path id="Sketch013_w0000"  d="M 74.8478626511 77.6506235302 L 64.272621 77.6506235302 L 52.408786 65.558647 L 33.430183 65.558647 L 33.430183 38.891868 L 20.397427 38.891868 L 20.397427 1.715763 L 76.161949 1.715763 L 76.161949 40.178765 L 87.3453201119 40.178765 L 87.3453201119 45.906832 L 90.666111 45.906832 L 90.666111 69.613366 L 87.0100312109 69.613366 L 87.0100312109 73.1443840374 A 6.7329954663 6.7329954663 0 0 1 74.8478626511 77.6506235302 " stroke="#000000" stroke-width="0.35 px" style="stroke-width:0.35;stroke-miterlimit:4;stroke-dasharray:none;fill:none;fill-rule: evenodd "/>
<path id="Sketch013_w0001"  d="M 40.5 84.6310659842 A 6.36893401579 6.36893401579 0 0 1 34.1310659842 91.0 L 13.7979570605 91.0 A 14.0 14.0 0 1 1 -6.0 71.2020429395 L -6.0 59.3161485334 A 2.6160549154 2.6160549154 0 0 1 -3.3839450846 56.700093618 L 0.0 56.700093618 L -9.02056207508e-17 36.699500382 L -3.3839450846 36.699500382 A 2.6160549154 2.6160549154 0 0 1 -6.0 34.0834454666 L -6.0 20.9999228169 A 20.0 20.0 0 0 1 21.9999228169 -7.0 L 73.0000771831 -7.0 A 20.0 20.0 0 0 1 101.0 20.9999228169 L 101.0 71.2020429395 A 14.0 14.0 0 0 1 81.2020429395 91.0 L 60.8689340158 91.0 A 6.36893401579 6.36893401579 0 0 1 54.5 84.6310659842 L 40.5 84.6310659842 " stroke="#000000" stroke-width="0.35 px" style="stroke-width:0.35;stroke-miterlimit:4;stroke-dasharray:none;fill:none;fill-rule: evenodd "/>
<circle cx="-1.65676163723" cy="86.6567616372" r="1.4" stroke="#000000" stroke-width="0.35 px" style="stroke-width:0.35;stroke-miterlimit:4;stroke-dasharray:none;fill:none"/>
<circle cx="22.0" cy="82.0" r="1.4" stroke="#000000" stroke-width="0.35 px" style="stroke-width:0.35;stroke-miterlimit:4;stroke-dasharray:none;fill:none"/>
<circle cx="73.0" cy="82.0" r="1.4" stroke="#000000" stroke-width="0.35 px" style="stroke-width:0.35;stroke-miterlimit:4;stroke-dasharray:none;fill:none"/>
<circle cx="90.9999073877" cy="80.9999073877" r="1.9" stroke="#000000" stroke-width="0.35 px" style="stroke-width:0.35;stroke-miterlimit:4;stroke-dasharray:none;fill:none"/>
<circle cx="96.6567616372" cy="86.6567616372" r="1.4" stroke="#000000" stroke-width="0.35 px" style="stroke-width:0.35;stroke-miterlimit:4;stroke-dasharray:none;fill:none"/>
<circle cx="91.0" cy="75.0" r="1.4" stroke="#000000" stroke-width="0.35 px" style="stroke-width:0.35;stroke-miterlimit:4;stroke-dasharray:none;fill:none"/>
<circle cx="91.0" cy="42.0" r="1.4" stroke="#000000" stroke-width="0.35 px" style="stroke-width:0.35;stroke-miterlimit:4;stroke-dasharray:none;fill:none"/>
<circle cx="94.8992634059" cy="-0.89926340595" r="1.4" stroke="#000000" stroke-width="0.35 px" style="stroke-width:0.35;stroke-miterlimit:4;stroke-dasharray:none;fill:none"/>
<circle cx="0.10073659405" cy="-0.89926340595" r="1.4" stroke="#000000" stroke-width="0.35 px" style="stroke-width:0.35;stroke-miterlimit:4;stroke-dasharray:none;fill:none"/>
<circle cx="3.0" cy="57.0" r="1.4" stroke="#000000" stroke-width="0.35 px" style="stroke-width:0.35;stroke-miterlimit:4;stroke-dasharray:none;fill:none"/>
<circle cx="4.00009261227" cy="80.9999073877" r="1.9" stroke="#000000" stroke-width="0.35 px" style="stroke-width:0.35;stroke-miterlimit:4;stroke-dasharray:none;fill:none"/>
<path id="Sketch013_w0013"  d="M 25.6 59.8 L 6.1 59.8 L 6.1 77.8 L 25.6 77.8 L 25.6 59.8 " stroke="#000000" stroke-width="0.35 px" style="stroke-width:0.35;stroke-miterlimit:4;stroke-dasharray:none;fill:none;fill-rule: evenodd "/>
<title>Sketch013</title>
</g>
</svg>