<?xml version="1.0"?>
<!DOCTYPE svg PUBLIC "-//W3C//DTD SVG 1.1//EN" "http://www.w3.org/Graphics/SVG/1.1/DTD/svg11.dtd">
<svg width="114.402303546mm" height="105.248380992mm" viewBox="-9.701152 -94.547229 114.402304 105.248381" xmlns="http://www.w3.org/2000/svg" version="1.1">
<g id="Sketch015" transform="scale(1,-1)">
<path id="Sketch015_w0000"  d="M -6.0 71.2020429395 L -6.0 20.9999228169 A 20.0 20.0 0 0 1 21.9999228169 -7.0 L 73.0000771831 -7.0 A 20.0 20.0 0 0 1 101.0 20.9999228169 L 101.0 71.2020429395 A 14.0 14.0 0 0 1 81.2020429395 91.0 L 13.7979570605 91.0 A 14.0 14.0 0 0 1 -6.0 71.2020429395 " stroke="#000000" stroke-width="0.35 px" style="stroke-width:0.35;stroke-miterlimit:4;stroke-dasharray:none;fill:none;fill-rule: evenodd "/>
<path id="Sketch015_w0001"  d="M 90.9186531693 36.9159308209 L 95.3198214668 36.9159308209 L 95.3198214668 9.58679090601 A 11.2669483991 11.2669483991 0 0 0 84.05287278 -1.68017853318 L 9.97988421734 -1.68017853316 A 11.2669483991 11.2669483991 0 0 0 -0.180178473199 9.53227847202 L -0.180150095022 36.9159308209 L 3.79853416536 36.9159308209 A 3.03842716925 3.03842716925 0 0 1 6.83696133461 39.9543579902 L 6.83696133461 76.5 L 87.880226 76.5 L 87.880226 39.9543579902 A 3.03842716925 3.03842716925 0 0 1 90.9186531693 36.9159308209 " stroke="#000000" stroke-width="0.35 px" style="stroke-width:0.35;stroke-miterlimit:4;stroke-dasharray:none;fill:none;fill-rule: evenodd "/>
<circle cx="0.10073659405" cy="-0.89926340595" r="1.5" stroke="#000000" stroke-width="0.35 px" style="stroke-width:0.35;stroke-miterlimit:4;stroke-dasharray:none;fill:none"/>
<circle cx="94.8992634059" cy="-0.89926340595" r="1.5" stroke="#000000" stroke-width="0.35 px" style="stroke-width:0.35;stroke-miterlimit:4;stroke-dasharray:none;fill:none"/>
<circle cx="96.6567616372" cy="86.6567616372" r="1.5" stroke="#000000" stroke-width="0.35 px" style="stroke-width:0.35;stroke-miterlimit:4;stroke-dasharray:none;fill:none"/>
<circle cx="-1.65676163723" cy="86.6567616372" r="1.5" stroke="#000000" stroke-width="0.35 px" style="stroke-width:0.35;stroke-miterlimit:4;stroke-dasharray:none;fill:none"/>
<title>Sketch015</title>
</g>
</svg>