<?xml version="1.0"?>
<!DOCTYPE svg PUBLIC "-//W3C//DTD SVG 1.1//EN" "http://www.w3.org/Graphics/SVG/1.1/DTD/svg11.dtd">
<svg width="114.438507477mm" height="109.201151773mm" viewBox="-9.701152 -98.500000 114.438507 109.201152" xmlns="http://www.w3.org/2000/svg" version="1.1">
<g id="Sketch008" transform="scale(1,-1)">
<path id="Sketch008_w0000"  d="M 101.0 20.9999228169 A 20.0 20.0 0 0 0 73.0000771831 -7.0 L 21.9999228169 -7.0 A 20.0 20.0 0 0 0 -6.0 20.9999228169 L -6.0 34.0834454666 A 2.6160549154 2.6160549154 0 0 0 -3.3839450846 36.699500382 L -0.180178533181 36.699500382 L -0.180178533178 9.53227728845 A 11.2669483991 11.2669483991 0 0 1 9.97988421734 -1.68017853316 L 84.05287278 -1.68017853317 A 11.2669483991 11.2669483991 0 0 1 95.3198214668 9.58679090601 L 95.3198214668 81.2021253806 A 4.11768591506 4.11768591506 0 0 1 91.2021354142 85.3198214668 L 54.5373515609 85.3198214668 A 6.36893401579 6.36893401579 0 0 0 60.8689340158 91.0 L 66.2020430577 91.0 A 7.5 7.5 0 0 0 81.2020429395 91.0 A 14.0 14.0 0 1 0 101.0 71.2020429395 L 101.0 20.9999228169 " stroke="#000000" stroke-width="0.35 px" style="stroke-width:0.35;stroke-miterlimit:4;stroke-dasharray:none;fill:none;fill-rule: evenodd "/>
<path id="Sketch008_w0001"  d="M 28.7979570605 91.0 L 34.1310659842 91.0 A 6.36893401579 6.36893401579 0 0 0 40.4626484391 85.3198214668 L 3.93750724279 85.3198214668 A 4.11768591506 4.11768591506 0 0 1 -0.180178533131 81.202115216 L -0.180178533181 56.7000935946 L -3.3839450846 56.700093618 A 2.6160549154 2.6160549154 0 0 0 -6.0 59.3161485334 L -6.0 71.2020429395 A 13.9992959513 13.9992959513 0 0 0 13.7979570605 91.0 A 7.5 7.5 0 1 0 28.7979570605 91.0 " stroke="#000000" stroke-width="0.35 px" style="stroke-width:0.35;stroke-miterlimit:4;stroke-dasharray:none;fill:none;fill-rule: evenodd "/>
<circle cx="0.10073659405" cy="-0.89926340595" r="1.5" stroke="#000000" stroke-width="0.35 px" style="stroke-width:0.35;stroke-miterlimit:4;stroke-dasharray:none;fill:none"/>
<circle cx="94.8992634059" cy="-0.89926340595" r="1.5" stroke="#000000" stroke-width="0.35 px" style="stroke-width:0.35;stroke-miterlimit:4;stroke-dasharray:none;fill:none"/>
<circle cx="-1.65676163723" cy="86.6567616372" r="1.5" stroke="#000000" stroke-width="0.35 px" style="stroke-width:0.35;stroke-miterlimit:4;stroke-dasharray:none;fill:none"/>
<circle cx="96.6567616372" cy="86.6567616372" r="1.5" stroke="#000000" stroke-width="0.35 px" style="stroke-width:0.35;stroke-miterlimit:4;stroke-dasharray:none;fill:none"/>
<circle cx="21.2979570605" cy="94.14015" r="2.0" stroke="#000000" stroke-width="0.35 px" style="stroke-width:0.35;stroke-miterlimit:4;stroke-dasharray:none;fill:none"/>
<circle cx="73.7020429986" cy="94.14015" r="2.0" stroke="#000000" stroke-width="0.35 px" style="stroke-width:0.35;stroke-miterlimit:4;stroke-dasharray:none;fill:none"/>
<title>Sketch008</title>
</g>
</svg>