<?xml version="1.0"?>
<!DOCTYPE svg PUBLIC "-//W3C//DTD SVG 1.1//EN" "http://www.w3.org/Graphics/SVG/1.1/DTD/svg11.dtd">
<svg width="114.438507477mm" height="109.202093498mm" viewBox="-9.701152 -98.500942 114.438507 109.202093" xmlns="http://www.w3.org/2000/svg" version="1.1">
<g id="Sketch012" transform="scale(1,-1)">
<circle cx="0.10073659405" cy="-0.89926340595" r="1.5" stroke="#000000" stroke-width="0.35 px" style="stroke-width:0.35;stroke-miterlimit:4;stroke-dasharray:none;fill:none"/>
<circle cx="94.8992634059" cy="-0.89926340595" r="1.5" stroke="#000000" stroke-width="0.35 px" style="stroke-width:0.35;stroke-miterlimit:4;stroke-dasharray:none;fill:none"/>
<circle cx="96.6567616372" cy="86.6567616372" r="1.5" stroke="#000000" stroke-width="0.35 px" style="stroke-width:0.35;stroke-miterlimit:4;stroke-dasharray:none;fill:none"/>
<circle cx="73.7020429986" cy="94.14015" r="2.0" stroke="#000000" stroke-width="0.35 px" style="stroke-width:0.35;stroke-miterlimit:4;stroke-dasharray:none;fill:none"/>
<circle cx="21.2979570605" cy="94.14015" r="2.0" stroke="#000000" stroke-width="0.35 px" style="stroke-width:0.35;stroke-miterlimit:4;stroke-dasharray:none;fill:none"/>
<circle cx="-1.65676163723" cy="86.6567616372" r="1.5" stroke="#000000" stroke-width="0.35 px" style="stroke-width:0.35;stroke-miterlimit:4;stroke-dasharray:none;fill:none"/>
<path id="Sketch012_w0006"  d="M 21.9999228169 -7.0 A 20.0 20.0 0 0 0 -6.0 20.9999228169 L -6.0 71.2020429395 A 13.9992959513 13.9992959513 0 0 0 13.7979570605 91.0 A 7.5 7.5 0 1 0 28.7979570605 91.0 L 66.2020430577 91.0 A 7.5 7.5 0 1 0 81.2020429395 91.0 A 14.0 14.0 0 1 0 101.0 71.2020429395 L 101.0 20.9999228169 A 20.0 20.0 0 0 0 73.0000771831 -7.0 L 21.9999228169 -7.0 " stroke="#000000" stroke-width="0.35 px" style="stroke-width:0.35;stroke-miterlimit:4;stroke-dasharray:none;fill:none;fill-rule: evenodd "/>
<path id="Sketch012_w0007"  d="M 9.97988421734 -1.68017853316 A 11.2669483991 11.2669483991 0 0 0 -0.180178533176 9.53227728844 L -0.180178533131 81.202115216 A 4.11768591506 4.11768591506 0 0 0 3.93750724279 85.3198214668 L 91.2021354142 85.3198214668 A 4.11768591506 4.11768591506 0 0 0 95.3198214668 81.2021253807 L 95.3198214668 9.58679090601 A 11.2669483991 11.2669483991 0 0 0 84.05287278 -1.68017853318 L 9.97988421734 -1.68017853316 " stroke="#000000" stroke-width="0.35 px" style="stroke-width:0.35;stroke-miterlimit:4;stroke-dasharray:none;fill:none;fill-rule: evenodd "/>
<title>Sketch012</title>
</g>
</svg>