<?xml version="1.0"?>
<!DOCTYPE svg PUBLIC "-//W3C//DTD SVG 1.1//EN" "http://www.w3.org/Graphics/SVG/1.1/DTD/svg11.dtd">
<svg width="111.0mm" height="102.000012323mm" viewBox="-8.000000 -93.000012 111.000000 102.000012" xmlns="http://www.w3.org/2000/svg" version="1.1">
<g id="Sketch006" transform="scale(1,-1)">
<path id="Sketch006_w0000"  d="M 25.6 77.8 L 25.6 59.8 L 16.525282 59.8 L 16.525282 38.7830203946 L 0.0 38.7830203946 L 6.2274927046e-17 35.7830203946 L -7.37352043578 35.7830203946 A 0.62647956422 0.62647956422 0 0 1 -8.0 35.1565408304 L -8.0 10.3858365964 A 19.3858365964 19.3858365964 0 0 1 11.385836993 -9.0 L 101.000000003 -9.0 A 2.0 2.0 0 0 1 103.0 -7.00000001375 L 103.0 91.0000120926 A 2.0 2.0 0 0 1 101.000000192 93.0000123225 L 63.6281480632 93.0000123225 L 63.6281480632 85.0 L 55.0000001153 85.0 L 55.0000001153 77.237109 L 40.0000001153 77.237109 L 40.0000001153 85.0 L 31.3718521674 85.0 L 31.3718521674 93.0000123225 L -5.99999996125 93.0000123225 A 2.0 2.0 0 0 1 -8.0 91.0000122657 L -8.0 57.3265731822 A 0.62647956422 0.62647956422 0 0 1 -7.37352043578 56.700093618 L 0.0 56.700093618 L 0.0 53.852437 L 6.1 53.852437 L 6.1 59.711455 L 6.1 77.8 L 25.6 77.8 " stroke="#000000" stroke-width="0.35 px" style="stroke-width:0.35;stroke-miterlimit:4;stroke-dasharray:none;fill:none;fill-rule: evenodd "/>
<path id="Sketch006_w0001"  d="M 33.430183 65.558647 L 33.430183 38.891868 L 20.397427 38.891868 L 20.397427 1.715763 L 76.161949 1.715763 L 76.161949 40.178765 L 87.3453201119 40.178765 L 87.3453201119 45.906832 L 90.666111 45.906832 L 90.666111 69.613366 L 87.0100312109 69.613366 L 87.0100312109 73.1443840374 A 6.7329954663 6.7329954663 0 0 1 74.8478626511 77.6506235302 L 64.272621 77.6506235302 L 52.408786 65.558647 L 33.430183 65.558647 " stroke="#000000" stroke-width="0.35 px" style="stroke-width:0.35;stroke-miterlimit:4;stroke-dasharray:none;fill:none;fill-rule: evenodd "/>
<circle cx="4.0" cy="81.0" r="1.9" stroke="#000000" stroke-width="0.35 px" style="stroke-width:0.35;stroke-miterlimit:4;stroke-dasharray:none;fill:none"/>
<circle cx="73.0" cy="82.0" r="1.6" stroke="#000000" stroke-width="0.35 px" style="stroke-width:0.35;stroke-miterlimit:4;stroke-dasharray:none;fill:none"/>
<circle cx="91.0" cy="81.0" r="1.9" stroke="#000000" stroke-width="0.35 px" style="stroke-width:0.35;stroke-miterlimit:4;stroke-dasharray:none;fill:none"/>
<circle cx="91.0" cy="75.0" r="1.6" stroke="#000000" stroke-width="0.35 px" style="stroke-width:0.35;stroke-miterlimit:4;stroke-dasharray:none;fill:none"/>
<circle cx="91.0" cy="42.0" r="1.6" stroke="#000000" stroke-width="0.35 px" style="stroke-width:0.35;stroke-miterlimit:4;stroke-dasharray:none;fill:none"/>
<circle cx="3.0" cy="57.0" r="1.6" stroke="#000000" stroke-width="0.35 px" style="stroke-width:0.35;stroke-miterlimit:4;stroke-dasharray:none;fill:none"/>
<circle cx="22.0" cy="82.0" r="1.6" stroke="#000000" stroke-width="0.35 px" style="stroke-width:0.35;stroke-miterlimit:4;stroke-dasharray:none;fill:none"/>
<circle cx="-3.207809" cy="87.948578" r="1.5" stroke="#000000" stroke-width="0.35 px" style="stroke-width:0.35;stroke-miterlimit:4;stroke-dasharray:none;fill:none"/>
<circle cx="-3.207809" cy="6.088969" r="1.5" stroke="#000000" stroke-width="0.35 px" style="stroke-width:0.35;stroke-miterlimit:4;stroke-dasharray:none;fill:none"/>
<circle cx="98.207809" cy="6.088969" r="1.5" stroke="#000000" stroke-width="0.35 px" style="stroke-width:0.35;stroke-miterlimit:4;stroke-dasharray:none;fill:none"/>
<circle cx="98.207809" cy="87.948578" r="1.5" stroke="#000000" stroke-width="0.35 px" style="stroke-width:0.35;stroke-miterlimit:4;stroke-dasharray:none;fill:none"/>
<title>Sketch006</title>
</g>
</svg>