<?xml version="1.0"?>
<!DOCTYPE svg PUBLIC "-//W3C//DTD SVG 1.1//EN" "http://www.w3.org/Graphics/SVG/1.1/DTD/svg11.dtd">
<svg width="111.0mm" height="102.000012323mm" viewBox="-8.000000 -93.000012 111.000000 102.000012" xmlns="http://www.w3.org/2000/svg" version="1.1">
<g id="Sketch008" transform="scale(1,-1)">
<circle cx="-3.207809" cy="87.948578" r="1.5" stroke="#000000" stroke-width="0.35 px" style="stroke-width:0.35;stroke-miterlimit:4;stroke-dasharray:none;fill:none"/>
<circle cx="98.207809" cy="87.948578" r="1.5" stroke="#000000" stroke-width="0.35 px" style="stroke-width:0.35;stroke-miterlimit:4;stroke-dasharray:none;fill:none"/>
<circle cx="98.207809" cy="6.088969" r="1.5" stroke="#000000" stroke-width="0.35 px" style="stroke-width:0.35;stroke-miterlimit:4;stroke-dasharray:none;fill:none"/>
<circle cx="-3.207809" cy="6.088969" r="1.5" stroke="#000000" stroke-width="0.35 px" style="stroke-width:0.35;stroke-miterlimit:4;stroke-dasharray:none;fill:none"/>
<path id="Sketch008_w0004"  d="M 103.0 91.0000120926 A 2.0 2.0 0 0 1 101.000000192 93.0000123225 L -5.99999996125 93.0000123225 A 2.0 2.0 0 0 1 -8.0 91.0000122657 L -7.99999999999 10.3858365964 A 19.3858365964 19.3858365964 0 0 1 11.385836993 -9.0 L 101.000000003 -9.0 A 2.0 2.0 0 0 1 103.0 -7.00000001375 L 103.0 91.0000120926 " stroke="#000000" stroke-width="0.35 px" style="stroke-width:0.35;stroke-miterlimit:4;stroke-dasharray:none;fill:none;fill-rule: evenodd "/>
<path id="Sketch008_w0005"  d="M 33.430183 38.891868 L 62.193932 38.891868 L 62.193932 65.558647 L 33.430183 65.558647 L 33.430183 38.891868 " stroke="#000000" stroke-width="0.35 px" style="stroke-width:0.35;stroke-miterlimit:4;stroke-dasharray:none;fill:none;fill-rule: evenodd "/>
<title>Sketch008</title>
</g>
</svg>