<?xml version="1.0"?>
<!DOCTYPE svg PUBLIC "-//W3C//DTD SVG 1.1//EN" "http://www.w3.org/Graphics/SVG/1.1/DTD/svg11.dtd">
<svg width="111.0mm" height="102.000012323mm" viewBox="-8.000000 -93.000012 111.000000 102.000012" xmlns="http://www.w3.org/2000/svg" version="1.1">
<g id="Sketch009" transform="scale(1,-1)">
<path id="Sketch009_w0000"  d="M 3.39606699383 -3.35977481648 A 0.936067075715 0.936067075715 0 0 0 1.5239328424 -3.35977481648 L 1.5239328424 0.140225183521 A 0.936067075715 0.936067075715 0 0 0 3.39606699383 0.140225183521 L 3.39606699383 -3.35977481648 " stroke="#000000" stroke-width="0.35 px" style="stroke-width:0.35;stroke-miterlimit:4;stroke-dasharray:none;fill:none;fill-rule: evenodd "/>
<path id="Sketch009_w0001"  d="M 6.76820114526 -3.35977481648 A 0.936067075715 0.936067075715 0 0 0 4.89606699383 -3.35977481648 L 4.89606699383 0.140225183521 A 0.936067075715 0.936067075715 0 0 0 6.76820114526 0.140225183521 L 6.76820114526 -3.35977481648 " stroke="#000000" stroke-width="0.35 px" style="stroke-width:0.35;stroke-miterlimit:4;stroke-dasharray:none;fill:none;fill-rule: evenodd "/>
<path id="Sketch009_w0002"  d="M 10.1403352967 -3.35977481648 A 0.936067075715 0.936067075715 0 0 0 8.26820114526 -3.35977481648 L 8.26820114526 0.140225183521 A 0.936067075715 0.936067075715 0 0 0 10.1403352967 0.140225183521 L 10.1403352967 -3.35977481648 " stroke="#000000" stroke-width="0.35 px" style="stroke-width:0.35;stroke-miterlimit:4;stroke-dasharray:none;fill:none;fill-rule: evenodd "/>
<title>Sketch009</title>
</g>
<g id="Sketch007" transform="scale(1,-1)">
<path id="Sketch007_w0000"  d="M 103.0 -7.00000001375 A 2.0 2.0 0 0 0 101.000000003 -9.0 L 11.385836993 -9.0 A 19.3858365964 19.3858365964 0 0 0 -8.0 10.3858365964 L -8.0 91.0000122657 A 2.0 2.0 0 0 0 -5.99999996125 93.0000123225 L 101.000000192 93.0000123225 A 2.0 2.0 0 0 0 103.0 91.0000120926 L 103.0 -7.00000001375 " stroke="#000000" stroke-width="0.35 px" style="stroke-width:0.35;stroke-miterlimit:4;stroke-dasharray:none;fill:none;fill-rule: evenodd "/>
<circle cx="-3.207809" cy="6.088969" r="1.5" stroke="#000000" stroke-width="0.35 px" style="stroke-width:0.35;stroke-miterlimit:4;stroke-dasharray:none;fill:none"/>
<circle cx="98.207809" cy="6.088969" r="1.5" stroke="#000000" stroke-width="0.35 px" style="stroke-width:0.35;stroke-miterlimit:4;stroke-dasharray:none;fill:none"/>
<circle cx="98.207809" cy="87.948578" r="1.5" stroke="#000000" stroke-width="0.35 px" style="stroke-width:0.35;stroke-miterlimit:4;stroke-dasharray:none;fill:none"/>
<circle cx="-3.207809" cy="87.948578" r="1.5" stroke="#000000" stroke-width="0.35 px" style="stroke-width:0.35;stroke-miterlimit:4;stroke-dasharray:none;fill:none"/>
<path id="Sketch007_w0005"  d="M -0.2 72.976433 L -0.2 24.2345370489 A 25.4345370489 25.4345370489 0 0 1 25.2345370489 -1.2 L 85.049764 -1.2 A 10.150236 10.150236 0 0 1 95.2 8.950236 L 95.2 72.976433 A 12.2235793225 12.2235793225 0 0 1 82.9764206775 85.2000123225 L 12.0235793225 85.2000123225 A 12.2235793225 12.2235793225 0 0 1 -0.2 72.976433 " stroke="#000000" stroke-width="0.35 px" style="stroke-width:0.35;stroke-miterlimit:4;stroke-dasharray:none;fill:none;fill-rule: evenodd "/>
<title>Sketch007</title>
</g>
</svg>